<svg version="1.1" xmlns="http://www.w3.org/2000/svg" xmlns:xlink="http://www.w3.org/1999/xlink" width="755.5927734375" height="314"><defs/><g><text fill="#eeeeee" stroke="none" font-family="Arial" font-size="24px" font-style="normal" font-weight="normal" text-decoration="none" x="0" y="0">UNREGISTERED</text><text fill="#eeeeee" stroke="none" font-family="Arial" font-size="24px" font-style="normal" font-weight="normal" text-decoration="none" x="0" y="30">UNREGISTERED</text><text fill="#eeeeee" stroke="none" font-family="Arial" font-size="24px" font-style="normal" font-weight="normal" text-decoration="none" x="0" y="60">UNREGISTERED</text><text fill="#eeeeee" stroke="none" font-family="Arial" font-size="24px" font-style="normal" font-weight="normal" text-decoration="none" x="0" y="90">UNREGISTERED</text><text fill="#eeeeee" stroke="none" font-family="Arial" font-size="24px" font-style="normal" font-weight="normal" text-decoration="none" x="0" y="120">UNREGISTERED</text><text fill="#eeeeee" stroke="none" font-family="Arial" font-size="24px" font-style="normal" font-weight="normal" text-decoration="none" x="0" y="150">UNREGISTERED</text><text fill="#eeeeee" stroke="none" font-family="Arial" font-size="24px" font-style="normal" font-weight="normal" text-decoration="none" x="0" y="180">UNREGISTERED</text><text fill="#eeeeee" stroke="none" font-family="Arial" font-size="24px" font-style="normal" font-weight="normal" text-decoration="none" x="0" y="210">UNREGISTERED</text><text fill="#eeeeee" stroke="none" font-family="Arial" font-size="24px" font-style="normal" font-weight="normal" text-decoration="none" x="0" y="240">UNREGISTERED</text><text fill="#eeeeee" stroke="none" font-family="Arial" font-size="24px" font-style="normal" font-weight="normal" text-decoration="none" x="0" y="270">UNREGISTERED</text><text fill="#eeeeee" stroke="none" font-family="Arial" font-size="24px" font-style="normal" font-weight="normal" text-decoration="none" x="0" y="300">UNREGISTERED</text><text fill="#eeeeee" stroke="none" font-family="Arial" font-size="24px" font-style="normal" font-weight="normal" text-decoration="none" x="200" y="0">UNREGISTERED</text><text fill="#eeeeee" stroke="none" font-family="Arial" font-size="24px" font-style="normal" font-weight="normal" text-decoration="none" x="200" y="30">UNREGISTERED</text><text fill="#eeeeee" stroke="none" font-family="Arial" font-size="24px" font-style="normal" font-weight="normal" text-decoration="none" x="200" y="60">UNREGISTERED</text><text fill="#eeeeee" stroke="none" font-family="Arial" font-size="24px" font-style="normal" font-weight="normal" text-decoration="none" x="200" y="90">UNREGISTERED</text><text fill="#eeeeee" stroke="none" font-family="Arial" font-size="24px" font-style="normal" font-weight="normal" text-decoration="none" x="200" y="120">UNREGISTERED</text><text fill="#eeeeee" stroke="none" font-family="Arial" font-size="24px" font-style="normal" font-weight="normal" text-decoration="none" x="200" y="150">UNREGISTERED</text><text fill="#eeeeee" stroke="none" font-family="Arial" font-size="24px" font-style="normal" font-weight="normal" text-decoration="none" x="200" y="180">UNREGISTERED</text><text fill="#eeeeee" stroke="none" font-family="Arial" font-size="24px" font-style="normal" font-weight="normal" text-decoration="none" x="200" y="210">UNREGISTERED</text><text fill="#eeeeee" stroke="none" font-family="Arial" font-size="24px" font-style="normal" font-weight="normal" text-decoration="none" x="200" y="240">UNREGISTERED</text><text fill="#eeeeee" stroke="none" font-family="Arial" font-size="24px" font-style="normal" font-weight="normal" text-decoration="none" x="200" y="270">UNREGISTERED</text><text fill="#eeeeee" stroke="none" font-family="Arial" font-size="24px" font-style="normal" font-weight="normal" text-decoration="none" x="200" y="300">UNREGISTERED</text><text fill="#eeeeee" stroke="none" font-family="Arial" font-size="24px" font-style="normal" font-weight="normal" text-decoration="none" x="400" y="0">UNREGISTERED</text><text fill="#eeeeee" stroke="none" font-family="Arial" font-size="24px" font-style="normal" font-weight="normal" text-decoration="none" x="400" y="30">UNREGISTERED</text><text fill="#eeeeee" stroke="none" font-family="Arial" font-size="24px" font-style="normal" font-weight="normal" text-decoration="none" x="400" y="60">UNREGISTERED</text><text fill="#eeeeee" stroke="none" font-family="Arial" font-size="24px" font-style="normal" font-weight="normal" text-decoration="none" x="400" y="90">UNREGISTERED</text><text fill="#eeeeee" stroke="none" font-family="Arial" font-size="24px" font-style="normal" font-weight="normal" text-decoration="none" x="400" y="120">UNREGISTERED</text><text fill="#eeeeee" stroke="none" font-family="Arial" font-size="24px" font-style="normal" font-weight="normal" text-decoration="none" x="400" y="150">UNREGISTERED</text><text fill="#eeeeee" stroke="none" font-family="Arial" font-size="24px" font-style="normal" font-weight="normal" text-decoration="none" x="400" y="180">UNREGISTERED</text><text fill="#eeeeee" stroke="none" font-family="Arial" font-size="24px" font-style="normal" font-weight="normal" text-decoration="none" x="400" y="210">UNREGISTERED</text><text fill="#eeeeee" stroke="none" font-family="Arial" font-size="24px" font-style="normal" font-weight="normal" text-decoration="none" x="400" y="240">UNREGISTERED</text><text fill="#eeeeee" stroke="none" font-family="Arial" font-size="24px" font-style="normal" font-weight="normal" text-decoration="none" x="400" y="270">UNREGISTERED</text><text fill="#eeeeee" stroke="none" font-family="Arial" font-size="24px" font-style="normal" font-weight="normal" text-decoration="none" x="400" y="300">UNREGISTERED</text><text fill="#eeeeee" stroke="none" font-family="Arial" font-size="24px" font-style="normal" font-weight="normal" text-decoration="none" x="600" y="0">UNREGISTERED</text><text fill="#eeeeee" stroke="none" font-family="Arial" font-size="24px" font-style="normal" font-weight="normal" text-decoration="none" x="600" y="30">UNREGISTERED</text><text fill="#eeeeee" stroke="none" font-family="Arial" font-size="24px" font-style="normal" font-weight="normal" text-decoration="none" x="600" y="60">UNREGISTERED</text><text fill="#eeeeee" stroke="none" font-family="Arial" font-size="24px" font-style="normal" font-weight="normal" text-decoration="none" x="600" y="90">UNREGISTERED</text><text fill="#eeeeee" stroke="none" font-family="Arial" font-size="24px" font-style="normal" font-weight="normal" text-decoration="none" x="600" y="120">UNREGISTERED</text><text fill="#eeeeee" stroke="none" font-family="Arial" font-size="24px" font-style="normal" font-weight="normal" text-decoration="none" x="600" y="150">UNREGISTERED</text><text fill="#eeeeee" stroke="none" font-family="Arial" font-size="24px" font-style="normal" font-weight="normal" text-decoration="none" x="600" y="180">UNREGISTERED</text><text fill="#eeeeee" stroke="none" font-family="Arial" font-size="24px" font-style="normal" font-weight="normal" text-decoration="none" x="600" y="210">UNREGISTERED</text><text fill="#eeeeee" stroke="none" font-family="Arial" font-size="24px" font-style="normal" font-weight="normal" text-decoration="none" x="600" y="240">UNREGISTERED</text><text fill="#eeeeee" stroke="none" font-family="Arial" font-size="24px" font-style="normal" font-weight="normal" text-decoration="none" x="600" y="270">UNREGISTERED</text><text fill="#eeeeee" stroke="none" font-family="Arial" font-size="24px" font-style="normal" font-weight="normal" text-decoration="none" x="600" y="300">UNREGISTERED</text><g transform="translate(-94,-142) scale(1,1)"><rect fill="#C0C0C0" stroke="none" x="223" y="159" width="160.595703125" height="102" opacity="0.2"/></g><g transform="translate(-94,-142) scale(1,1)"><rect fill="#ffffff" stroke="none" x="216" y="152" width="160.595703125" height="102"/></g><g transform="translate(-94,-142) scale(1,1)"><path fill="none" stroke="#000000" d="M 216 152 L 376.595703125 152 L 376.595703125 254 L 216 254 L 216 152 Z Z" stroke-miterlimit="10"/></g><g transform="translate(-94,-142) scale(1,1)"><path fill="none" stroke="#000000" d="M 216 177 L 376.595703125 177" stroke-miterlimit="10"/></g><g transform="translate(-94,-142) scale(1,1)"><path fill="none" stroke="#000000" d="M 216 230 L 376.595703125 230" stroke-miterlimit="10"/></g><g transform="translate(-94,-142) scale(1,1)"><g><path fill="none" stroke="none"/><text fill="#000000" stroke="none" font-family="Roboto" font-size="13px" font-style="normal" font-weight="bold" text-decoration="none" x="277.531005859375" y="171.5">Admin</text></g></g><g transform="translate(-94,-142) scale(1,1)"><g><path fill="none" stroke="none"/><text fill="#000000" stroke="none" font-family="Roboto" font-size="13px" font-style="normal" font-weight="normal" text-decoration="none" x="221" y="194.5">-name: string</text></g></g><g transform="translate(-94,-142) scale(1,1)"><g><path fill="none" stroke="none"/><text fill="#000000" stroke="none" font-family="Roboto" font-size="13px" font-style="normal" font-weight="normal" text-decoration="none" x="221" y="209.5">-email: string</text></g></g><g transform="translate(-94,-142) scale(1,1)"><g><path fill="none" stroke="none"/><text fill="#000000" stroke="none" font-family="Roboto" font-size="13px" font-style="normal" font-weight="normal" text-decoration="none" x="221" y="224.5">-password: string</text></g></g><g transform="translate(-94,-142) scale(1,1)"><rect fill="#C0C0C0" stroke="none" x="575" y="207" width="84.4482421875" height="87" opacity="0.2"/></g><g transform="translate(-94,-142) scale(1,1)"><rect fill="#ffffff" stroke="none" x="568" y="200" width="84.4482421875" height="87"/></g><g transform="translate(-94,-142) scale(1,1)"><path fill="none" stroke="#000000" d="M 568 200 L 652.4482421875 200 L 652.4482421875 287 L 568 287 L 568 200 Z Z" stroke-miterlimit="10"/></g><g transform="translate(-94,-142) scale(1,1)"><path fill="none" stroke="#000000" d="M 568 225 L 652.4482421875 225" stroke-miterlimit="10"/></g><g transform="translate(-94,-142) scale(1,1)"><path fill="none" stroke="#000000" d="M 568 278 L 652.4482421875 278" stroke-miterlimit="10"/></g><g transform="translate(-94,-142) scale(1,1)"><g><path fill="none" stroke="none"/><text fill="#000000" stroke="none" font-family="Roboto" font-size="13px" font-style="normal" font-weight="bold" text-decoration="none" x="582.24365234375" y="219.5">Instructor</text></g></g><g transform="translate(-94,-142) scale(1,1)"><g><path fill="none" stroke="none"/><text fill="#000000" stroke="none" font-family="Roboto" font-size="13px" font-style="normal" font-weight="normal" text-decoration="none" x="573" y="242.5">-name: string</text></g></g><g transform="translate(-94,-142) scale(1,1)"><g><path fill="none" stroke="none"/><text fill="#000000" stroke="none" font-family="Roboto" font-size="13px" font-style="normal" font-weight="normal" text-decoration="none" x="573" y="257.5">-cpf: string</text></g></g><g transform="translate(-94,-142) scale(1,1)"><g><path fill="none" stroke="none"/><text fill="#000000" stroke="none" font-family="Roboto" font-size="13px" font-style="normal" font-weight="normal" text-decoration="none" x="573" y="272.5">-email: string</text></g></g><g transform="translate(-94,-142) scale(1,1)"><rect fill="#C0C0C0" stroke="none" x="551" y="351" width="134.27734375" height="102" opacity="0.2"/></g><g transform="translate(-94,-142) scale(1,1)"><rect fill="#ffffff" stroke="none" x="544" y="344" width="134.27734375" height="102"/></g><g transform="translate(-94,-142) scale(1,1)"><path fill="none" stroke="#000000" d="M 544 344 L 678.27734375 344 L 678.27734375 446 L 544 446 L 544 344 Z Z" stroke-miterlimit="10"/></g><g transform="translate(-94,-142) scale(1,1)"><path fill="none" stroke="#000000" d="M 544 369 L 678.27734375 369" stroke-miterlimit="10"/></g><g transform="translate(-94,-142) scale(1,1)"><path fill="none" stroke="#000000" d="M 544 437 L 678.27734375 437" stroke-miterlimit="10"/></g><g transform="translate(-94,-142) scale(1,1)"><g><path fill="none" stroke="none"/><text fill="#000000" stroke="none" font-family="Roboto" font-size="13px" font-style="normal" font-weight="bold" text-decoration="none" x="590.623046875" y="363.5">Course</text></g></g><g transform="translate(-94,-142) scale(1,1)"><g><path fill="none" stroke="none"/><text fill="#000000" stroke="none" font-family="Roboto" font-size="13px" font-style="normal" font-weight="normal" text-decoration="none" x="549" y="386.5">-name: string</text></g></g><g transform="translate(-94,-142) scale(1,1)"><g><path fill="none" stroke="none"/><text fill="#000000" stroke="none" font-family="Roboto" font-size="13px" font-style="normal" font-weight="normal" text-decoration="none" x="549" y="401.5">-description: string</text></g></g><g transform="translate(-94,-142) scale(1,1)"><g><path fill="none" stroke="none"/><text fill="#000000" stroke="none" font-family="Roboto" font-size="13px" font-style="normal" font-weight="normal" text-decoration="none" x="549" y="416.5">-thumbnail: string</text></g></g><g transform="translate(-94,-142) scale(1,1)"><g><path fill="none" stroke="none"/><text fill="#000000" stroke="none" font-family="Roboto" font-size="13px" font-style="normal" font-weight="normal" text-decoration="none" x="549" y="431.5">-instructor: Instructor</text></g></g><g transform="translate(-94,-142) scale(1,1)"><rect fill="#C0C0C0" stroke="none" x="743" y="359" width="103.5927734375" height="87" opacity="0.2"/></g><g transform="translate(-94,-142) scale(1,1)"><rect fill="#ffffff" stroke="none" x="736" y="352" width="103.5927734375" height="87"/></g><g transform="translate(-94,-142) scale(1,1)"><path fill="none" stroke="#000000" d="M 736 352 L 839.5927734375 352 L 839.5927734375 439 L 736 439 L 736 352 Z Z" stroke-miterlimit="10"/></g><g transform="translate(-94,-142) scale(1,1)"><path fill="none" stroke="#000000" d="M 736 377 L 839.5927734375 377" stroke-miterlimit="10"/></g><g transform="translate(-94,-142) scale(1,1)"><path fill="none" stroke="#000000" d="M 736 430 L 839.5927734375 430" stroke-miterlimit="10"/></g><g transform="translate(-94,-142) scale(1,1)"><g><path fill="none" stroke="none"/><text fill="#000000" stroke="none" font-family="Roboto" font-size="13px" font-style="normal" font-weight="bold" text-decoration="none" x="766.858642578125" y="371.5">Lesson</text></g></g><g transform="translate(-94,-142) scale(1,1)"><g><path fill="none" stroke="none"/><text fill="#000000" stroke="none" font-family="Roboto" font-size="13px" font-style="normal" font-weight="normal" text-decoration="none" x="741" y="394.5">-name: string</text></g></g><g transform="translate(-94,-142) scale(1,1)"><g><path fill="none" stroke="none"/><text fill="#000000" stroke="none" font-family="Roboto" font-size="13px" font-style="normal" font-weight="normal" text-decoration="none" x="741" y="409.5">-video: string</text></g></g><g transform="translate(-94,-142) scale(1,1)"><g><path fill="none" stroke="none"/><text fill="#000000" stroke="none" font-family="Roboto" font-size="13px" font-style="normal" font-weight="normal" text-decoration="none" x="741" y="424.5">-course: Course</text></g></g><g transform="translate(-94,-142) scale(1,1)"><rect fill="#C0C0C0" stroke="none" x="319" y="367" width="109.6357421875" height="72" opacity="0.2"/></g><g transform="translate(-94,-142) scale(1,1)"><rect fill="#ffffff" stroke="none" x="312" y="360" width="109.6357421875" height="72"/></g><g transform="translate(-94,-142) scale(1,1)"><path fill="none" stroke="#000000" d="M 312 360 L 421.6357421875 360 L 421.6357421875 432 L 312 432 L 312 360 Z Z" stroke-miterlimit="10"/></g><g transform="translate(-94,-142) scale(1,1)"><path fill="none" stroke="#000000" d="M 312 385 L 421.6357421875 385" stroke-miterlimit="10"/></g><g transform="translate(-94,-142) scale(1,1)"><path fill="none" stroke="#000000" d="M 312 423 L 421.6357421875 423" stroke-miterlimit="10"/></g><g transform="translate(-94,-142) scale(1,1)"><g><path fill="none" stroke="none"/><text fill="#000000" stroke="none" font-family="Roboto" font-size="13px" font-style="normal" font-weight="bold" text-decoration="none" x="323.92041015625" y="379.5">StudentCourse</text></g></g><g transform="translate(-94,-142) scale(1,1)"><g><path fill="none" stroke="none"/><text fill="#000000" stroke="none" font-family="Roboto" font-size="13px" font-style="normal" font-weight="normal" text-decoration="none" x="317" y="402.5">-student: Student</text></g></g><g transform="translate(-94,-142) scale(1,1)"><g><path fill="none" stroke="none"/><text fill="#000000" stroke="none" font-family="Roboto" font-size="13px" font-style="normal" font-weight="normal" text-decoration="none" x="317" y="417.5">-course: Course</text></g></g><g transform="translate(-94,-142) scale(1,1)"><path fill="none" stroke="#000000" d="M 735 395 L 679 395" stroke-miterlimit="10" stroke-dasharray="3"/></g><g transform="translate(-94,-142) scale(1,1)"><path fill="none" stroke="#000000" d="M 689.1626748576241 390.790482243984 L 679 395 L 689.1626748576241 399.209517756016" stroke-miterlimit="10"/></g><g transform="translate(-94,-142) scale(1,1)"><path fill="none" stroke="#000000" d="M 611 343 L 610 288" stroke-miterlimit="10" stroke-dasharray="3"/></g><g transform="translate(-94,-142) scale(1,1)"><path fill="none" stroke="#000000" d="M 614.3935675130193 298.0844714540992 L 610 288 L 605.9759232321812 298.2375195319326" stroke-miterlimit="10"/></g><g transform="translate(-94,-142) scale(1,1)"><path fill="none" stroke="#000000" d="M 423 396 L 543 395" stroke-miterlimit="10"/></g><g transform="translate(-94,-142) scale(1,1)"><g><path fill="none" stroke="none"/><text fill="#000000" stroke="none" font-family="Roboto" font-size="13px" font-style="normal" font-weight="normal" text-decoration="none" x="434.5" y="414.5">1..*</text></g></g><g transform="translate(-94,-142) scale(1,1)"><rect fill="#C0C0C0" stroke="none" x="111" y="351" width="112.27001953125" height="102" opacity="0.2"/></g><g transform="translate(-94,-142) scale(1,1)"><rect fill="#ffffff" stroke="none" x="104" y="344" width="112.27001953125" height="102"/></g><g transform="translate(-94,-142) scale(1,1)"><path fill="none" stroke="#000000" d="M 104 344 L 216.27001953125 344 L 216.27001953125 446 L 104 446 L 104 344 Z Z" stroke-miterlimit="10"/></g><g transform="translate(-94,-142) scale(1,1)"><path fill="none" stroke="#000000" d="M 104 369 L 216.27001953125 369" stroke-miterlimit="10"/></g><g transform="translate(-94,-142) scale(1,1)"><path fill="none" stroke="#000000" d="M 104 437 L 216.27001953125 437" stroke-miterlimit="10"/></g><g transform="translate(-94,-142) scale(1,1)"><g><path fill="none" stroke="none"/><text fill="#000000" stroke="none" font-family="Roboto" font-size="13px" font-style="normal" font-weight="bold" text-decoration="none" x="137.753173828125" y="363.5">Student</text></g></g><g transform="translate(-94,-142) scale(1,1)"><g><path fill="none" stroke="none"/><text fill="#000000" stroke="none" font-family="Roboto" font-size="13px" font-style="normal" font-weight="normal" text-decoration="none" x="109" y="386.5">-name: string</text></g></g><g transform="translate(-94,-142) scale(1,1)"><g><path fill="none" stroke="none"/><text fill="#000000" stroke="none" font-family="Roboto" font-size="13px" font-style="normal" font-weight="normal" text-decoration="none" x="109" y="401.5">-cpf: string</text></g></g><g transform="translate(-94,-142) scale(1,1)"><g><path fill="none" stroke="none"/><text fill="#000000" stroke="none" font-family="Roboto" font-size="13px" font-style="normal" font-weight="normal" text-decoration="none" x="109" y="416.5">-email: string</text></g></g><g transform="translate(-94,-142) scale(1,1)"><g><path fill="none" stroke="none"/><text fill="#000000" stroke="none" font-family="Roboto" font-size="13px" font-style="normal" font-weight="normal" text-decoration="none" x="109" y="431.5">-password: string</text></g></g><g transform="translate(-94,-142) scale(1,1)"><path fill="none" stroke="#000000" d="M 217 395 L 311 396" stroke-miterlimit="10"/></g></g></svg>